<?xml version="1.0" encoding="UTF-8" standalone="no"?>
<!DOCTYPE svg PUBLIC "-//W3C//DTD SVG 1.1//EN"
 "http://www.w3.org/Graphics/SVG/1.1/DTD/svg11.dtd">
<!-- Generated by graphviz version 2.43.0 (0)
 -->
<!-- Pages: 1 -->
<svg width="1229pt" height="592pt"
 viewBox="0.00 0.00 1229.00 591.50" xmlns="http://www.w3.org/2000/svg" xmlns:xlink="http://www.w3.org/1999/xlink">
                <style>
                a:hover polygon {
                    fill: yellow;
                }
                </style>
            
<g id="graph0" class="graph" transform="scale(1 1) rotate(0) translate(4 587.5)">
<polygon fill="white" stroke="transparent" points="-4,4 -4,-587.5 1225,-587.5 1225,4 -4,4"/>
<!-- &lt;NotebookRule &#39;Omics terms&#39; with 2 inputs and 1 outputs&gt; -->
<g id="node1" class="node">
<title>&lt;NotebookRule &#39;Omics terms&#39; with 2 inputs and 1 outputs&gt;</title>
<g id="a_node1_0"><a xlink:href="https://github.com/krassowski/multi-omics-state-of-the-art/blob/master/Omics_terms.ipynb" xlink:title="Omics_terms.ipynb">
<polygon fill="none" stroke="black" points="766.5,-414.5 766.5,-435.5 851.5,-435.5 851.5,-414.5 766.5,-414.5"/>
<text text-anchor="start" x="769.5" y="-421.3" font-family="Arial, sans-serf" font-size="14.00">Omics terms</text>
</a>
</g>
<polygon fill="none" stroke="black" points="765,-414 765,-437 852,-437 852,-414 765,-414"/>
</g>
<!-- &lt;InputOutputNode omics_features&gt; -->
<g id="pubmed_derived_data_omics_features" class="node">
<title>&lt;InputOutputNode omics_features&gt;</title>
<polygon fill="none" stroke="black" points="1040,-460.5 1037,-464.5 1016,-464.5 1013,-460.5 888,-460.5 888,-422.5 1040,-422.5 1040,-460.5"/>
<text text-anchor="start" x="896" y="-445.3" font-family="Arial, sans-serf" font-size="14.00" fill="grey">pubmed_derived_data</text>
<text text-anchor="start" x="919.5" y="-430.3" font-family="Arial, sans-serf" font-size="14.00">omics features</text>
</g>
<!-- &lt;NotebookRule &#39;Omics terms&#39; with 2 inputs and 1 outputs&gt;&#45;&gt;&lt;InputOutputNode omics_features&gt; -->
<g id="edge1" class="edge">
<title>&lt;NotebookRule &#39;Omics terms&#39; with 2 inputs and 1 outputs&gt;&#45;&gt;&lt;InputOutputNode omics_features&gt;</title>
<path fill="none" stroke="black" d="M852.26,-429.96C860.31,-430.8 869,-431.7 877.83,-432.62"/>
<polygon fill="black" stroke="black" points="877.53,-436.11 887.84,-433.67 878.26,-429.15 877.53,-436.11"/>
</g>
<!-- &lt;NotebookRule &#39;Overview&#39; with 7 inputs&gt; -->
<g id="node3" class="node">
<title>&lt;NotebookRule &#39;Overview&#39; with 7 inputs&gt;</title>
<g id="a_node3_1"><a xlink:href="https://github.com/krassowski/multi-omics-state-of-the-art/blob/master/Overview.ipynb" xlink:title="Overview.ipynb">
<polygon fill="none" stroke="black" points="1116.5,-345.5 1116.5,-366.5 1180.5,-366.5 1180.5,-345.5 1116.5,-345.5"/>
<text text-anchor="start" x="1119.5" y="-352.3" font-family="Arial, sans-serf" font-size="14.00">Overview</text>
</a>
</g>
<polygon fill="none" stroke="black" points="1115.5,-345 1115.5,-368 1181.5,-368 1181.5,-345 1115.5,-345"/>
</g>
<!-- &lt;InputOutputNode omics_features&gt;&#45;&gt;&lt;NotebookRule &#39;Overview&#39; with 7 inputs&gt; -->
<g id="edge2" class="edge">
<title>&lt;InputOutputNode omics_features&gt;&#45;&gt;&lt;NotebookRule &#39;Overview&#39; with 7 inputs&gt;</title>
<path fill="none" stroke="black" d="M1009.14,-422.39C1019.31,-417.91 1030.06,-413.09 1040,-408.5 1065.3,-396.82 1093.67,-383.07 1114.91,-372.64"/>
<polygon fill="black" stroke="black" points="1116.7,-375.66 1124.13,-368.11 1113.61,-369.38 1116.7,-375.66"/>
</g>
<!-- &lt;NotebookRule &#39;Flowchart&#39; with 5 inputs&gt; -->
<g id="node4" class="node">
<title>&lt;NotebookRule &#39;Flowchart&#39; with 5 inputs&gt;</title>
<g id="a_node4_2"><a xlink:href="https://github.com/krassowski/multi-omics-state-of-the-art/blob/master/Flowchart.ipynb" xlink:title="Flowchart.ipynb">
<polygon fill="none" stroke="black" points="1116.5,-486.5 1116.5,-507.5 1181.5,-507.5 1181.5,-486.5 1116.5,-486.5"/>
<text text-anchor="start" x="1119.5" y="-493.3" font-family="Arial, sans-serf" font-size="14.00">Flowchart</text>
</a>
</g>
<polygon fill="none" stroke="black" points="1115,-486 1115,-509 1182,-509 1182,-486 1115,-486"/>
</g>
<!-- &lt;InputOutputNode omics_features&gt;&#45;&gt;&lt;NotebookRule &#39;Flowchart&#39; with 5 inputs&gt; -->
<g id="edge3" class="edge">
<title>&lt;InputOutputNode omics_features&gt;&#45;&gt;&lt;NotebookRule &#39;Flowchart&#39; with 5 inputs&gt;</title>
<path fill="none" stroke="black" d="M1027.04,-460.54C1052.69,-468.41 1081.79,-477.34 1104.96,-484.45"/>
<polygon fill="black" stroke="black" points="1104.24,-487.89 1114.83,-487.47 1106.29,-481.19 1104.24,-487.89"/>
</g>
<!-- &lt;InputOutputNode literature&gt; -->
<g id="pubmed_derived_data_literature" class="node">
<title>&lt;InputOutputNode literature&gt;</title>
<polygon fill="none" stroke="black" points="286.5,-571.5 283.5,-575.5 262.5,-575.5 259.5,-571.5 134.5,-571.5 134.5,-533.5 286.5,-533.5 286.5,-571.5"/>
<text text-anchor="start" x="142.5" y="-556.3" font-family="Arial, sans-serf" font-size="14.00" fill="grey">pubmed_derived_data</text>
<text text-anchor="start" x="184" y="-541.3" font-family="Arial, sans-serf" font-size="14.00">literature</text>
</g>
<!-- &lt;InputOutputNode literature&gt;&#45;&gt;&lt;NotebookRule &#39;Omics terms&#39; with 2 inputs and 1 outputs&gt; -->
<g id="edge4" class="edge">
<title>&lt;InputOutputNode literature&gt;&#45;&gt;&lt;NotebookRule &#39;Omics terms&#39; with 2 inputs and 1 outputs&gt;</title>
<path fill="none" stroke="black" d="M272.34,-533.38C278.13,-530.72 283.78,-527.76 289,-524.5 307.92,-512.67 304.92,-499.24 325,-489.5 399.94,-453.15 645.6,-434.83 754.59,-428.33"/>
<polygon fill="black" stroke="black" points="754.93,-431.82 764.71,-427.74 754.52,-424.83 754.93,-431.82"/>
</g>
<!-- &lt;InputOutputNode literature&gt;&#45;&gt;&lt;NotebookRule &#39;Overview&#39; with 7 inputs&gt; -->
<g id="edge7" class="edge">
<title>&lt;InputOutputNode literature&gt;&#45;&gt;&lt;NotebookRule &#39;Overview&#39; with 7 inputs&gt;</title>
<path fill="none" stroke="black" d="M286.66,-545.22C433.52,-530.14 752.9,-492.89 852,-445.5 871.31,-436.26 868.92,-423.2 888,-413.5 949.63,-382.18 972.49,-395.36 1040,-380.5 1061.47,-375.77 1085.33,-370.45 1105.11,-366.02"/>
<polygon fill="black" stroke="black" points="1106.06,-369.4 1115.05,-363.8 1104.53,-362.57 1106.06,-369.4"/>
</g>
<!-- &lt;InputOutputNode literature&gt;&#45;&gt;&lt;NotebookRule &#39;Flowchart&#39; with 5 inputs&gt; -->
<g id="edge8" class="edge">
<title>&lt;InputOutputNode literature&gt;&#45;&gt;&lt;NotebookRule &#39;Flowchart&#39; with 5 inputs&gt;</title>
<path fill="none" stroke="black" d="M286.53,-561.3C371.26,-570.47 513.34,-583.5 636,-583.5 636,-583.5 636,-583.5 809.5,-583.5 913.48,-583.5 940.31,-573.04 1040,-543.5 1066.16,-535.75 1094.49,-523.45 1115.49,-513.53"/>
<polygon fill="black" stroke="black" points="1117.09,-516.64 1124.59,-509.16 1114.06,-510.33 1117.09,-516.64"/>
</g>
<!-- &lt;NotebookRule &#39;Exploration&#39; with 6 inputs&gt; -->
<g id="node6" class="node">
<title>&lt;NotebookRule &#39;Exploration&#39; with 6 inputs&gt;</title>
<g id="a_node6_3"><a xlink:href="https://github.com/krassowski/multi-omics-state-of-the-art/blob/master/Exploration.ipynb" xlink:title="Exploration.ipynb">
<polygon fill="none" stroke="black" points="380,-373.5 380,-394.5 454,-394.5 454,-373.5 380,-373.5"/>
<text text-anchor="start" x="383" y="-380.3" font-family="Arial, sans-serf" font-size="14.00">Exploration</text>
</a>
</g>
<polygon fill="none" stroke="black" points="379,-373 379,-396 455,-396 455,-373 379,-373"/>
</g>
<!-- &lt;InputOutputNode literature&gt;&#45;&gt;&lt;NotebookRule &#39;Exploration&#39; with 6 inputs&gt; -->
<g id="edge5" class="edge">
<title>&lt;InputOutputNode literature&gt;&#45;&gt;&lt;NotebookRule &#39;Exploration&#39; with 6 inputs&gt;</title>
<path fill="none" stroke="black" d="M278.44,-533.34C282.28,-530.76 285.85,-527.83 289,-524.5 327.27,-484.05 284.18,-442.37 325,-404.5 336.77,-393.58 353.09,-388.12 368.67,-385.53"/>
<polygon fill="black" stroke="black" points="369.28,-388.98 378.74,-384.21 368.37,-382.04 369.28,-388.98"/>
</g>
<!-- &lt;NotebookRule &#39;Source code&#39; with 1 inputs and 1 outputs&gt; -->
<g id="node7" class="node">
<title>&lt;NotebookRule &#39;Source code&#39; with 1 inputs and 1 outputs&gt;</title>
<g id="a_node7_4"><a xlink:href="https://github.com/krassowski/multi-omics-state-of-the-art/blob/master/Source_code.ipynb" xlink:title="Source_code.ipynb">
<polygon fill="none" stroke="black" points="376,-414.5 376,-435.5 458,-435.5 458,-414.5 376,-414.5"/>
<text text-anchor="start" x="379" y="-421.3" font-family="Arial, sans-serf" font-size="14.00">Source code</text>
</a>
</g>
<polygon fill="none" stroke="black" points="375,-414 375,-437 459,-437 459,-414 375,-414"/>
</g>
<!-- &lt;InputOutputNode literature&gt;&#45;&gt;&lt;NotebookRule &#39;Source code&#39; with 1 inputs and 1 outputs&gt; -->
<g id="edge6" class="edge">
<title>&lt;InputOutputNode literature&gt;&#45;&gt;&lt;NotebookRule &#39;Source code&#39; with 1 inputs and 1 outputs&gt;</title>
<path fill="none" stroke="black" d="M276.71,-533.39C281.11,-530.79 285.27,-527.84 289,-524.5 315.96,-500.38 297.23,-474.68 325,-451.5 336.27,-442.1 350.75,-436.09 364.83,-432.25"/>
<polygon fill="black" stroke="black" points="366.06,-435.56 374.97,-429.83 364.43,-428.75 366.06,-435.56"/>
</g>
<!-- &lt;NotebookRule &#39;Feature engineering&#39; with 1 inputs and 1 outputs&gt; -->
<g id="node8" class="node">
<title>&lt;NotebookRule &#39;Feature engineering&#39; with 1 inputs and 1 outputs&gt;</title>
<g id="a_node8_5"><a xlink:href="https://github.com/krassowski/multi-omics-state-of-the-art/blob/master/Feature_engineering.ipynb" xlink:title="Feature_engineering.ipynb">
<polygon fill="none" stroke="black" points="574,-532.5 574,-553.5 701,-553.5 701,-532.5 574,-532.5"/>
<text text-anchor="start" x="577" y="-539.3" font-family="Arial, sans-serf" font-size="14.00">Feature engineering</text>
</a>
</g>
<polygon fill="none" stroke="black" points="572.5,-532 572.5,-555 701.5,-555 701.5,-532 572.5,-532"/>
</g>
<!-- &lt;InputOutputNode literature&gt;&#45;&gt;&lt;NotebookRule &#39;Feature engineering&#39; with 1 inputs and 1 outputs&gt; -->
<g id="edge9" class="edge">
<title>&lt;InputOutputNode literature&gt;&#45;&gt;&lt;NotebookRule &#39;Feature engineering&#39; with 1 inputs and 1 outputs&gt;</title>
<path fill="none" stroke="black" d="M286.9,-550.9C364.66,-549.25 485.12,-546.7 562.26,-545.06"/>
<polygon fill="black" stroke="black" points="562.45,-548.56 572.38,-544.85 562.31,-541.56 562.45,-548.56"/>
</g>
<!-- &lt;InputOutputNode code_repositories&gt; -->
<g id="pubmed_derived_data_code_repositories" class="node">
<title>&lt;InputOutputNode code_repositories&gt;</title>
<polygon fill="none" stroke="black" points="713,-407.5 710,-411.5 689,-411.5 686,-407.5 561,-407.5 561,-369.5 713,-369.5 713,-407.5"/>
<text text-anchor="start" x="569" y="-392.3" font-family="Arial, sans-serf" font-size="14.00" fill="grey">pubmed_derived_data</text>
<text text-anchor="start" x="585.5" y="-377.3" font-family="Arial, sans-serf" font-size="14.00">code repositories</text>
</g>
<!-- &lt;NotebookRule &#39;Source code&#39; with 1 inputs and 1 outputs&gt;&#45;&gt;&lt;InputOutputNode code_repositories&gt; -->
<g id="edge32" class="edge">
<title>&lt;NotebookRule &#39;Source code&#39; with 1 inputs and 1 outputs&gt;&#45;&gt;&lt;InputOutputNode code_repositories&gt;</title>
<path fill="none" stroke="black" d="M459,-418.54C484.82,-414.16 519.12,-408.34 550.64,-402.99"/>
<polygon fill="black" stroke="black" points="551.49,-406.39 560.77,-401.27 550.32,-399.49 551.49,-406.39"/>
</g>
<!-- &lt;InputOutputNode domain_features&gt; -->
<g id="pubmed_derived_data_domain_features" class="node">
<title>&lt;InputOutputNode domain_features&gt;</title>
<polygon fill="none" stroke="black" points="1040,-516.5 1037,-520.5 1016,-520.5 1013,-516.5 888,-516.5 888,-478.5 1040,-478.5 1040,-516.5"/>
<text text-anchor="start" x="896" y="-501.3" font-family="Arial, sans-serf" font-size="14.00" fill="grey">pubmed_derived_data</text>
<text text-anchor="start" x="915" y="-486.3" font-family="Arial, sans-serf" font-size="14.00">domain features</text>
</g>
<!-- &lt;NotebookRule &#39;Feature engineering&#39; with 1 inputs and 1 outputs&gt;&#45;&gt;&lt;InputOutputNode domain_features&gt; -->
<g id="edge46" class="edge">
<title>&lt;NotebookRule &#39;Feature engineering&#39; with 1 inputs and 1 outputs&gt;&#45;&gt;&lt;InputOutputNode domain_features&gt;</title>
<path fill="none" stroke="black" d="M701.8,-536.72C744.42,-531.95 801.67,-525.09 852,-517.5 860.44,-516.23 869.23,-514.81 877.99,-513.33"/>
<polygon fill="black" stroke="black" points="878.6,-516.78 887.86,-511.64 877.42,-509.88 878.6,-516.78"/>
</g>
<!-- &lt;InputOutputNode literature_subjects&gt; -->
<g id="pubmed_derived_data_literature_subjects" class="node">
<title>&lt;InputOutputNode literature_subjects&gt;</title>
<polygon fill="none" stroke="black" points="713,-267.5 710,-271.5 689,-271.5 686,-267.5 561,-267.5 561,-229.5 713,-229.5 713,-267.5"/>
<text text-anchor="start" x="569" y="-252.3" font-family="Arial, sans-serf" font-size="14.00" fill="grey">pubmed_derived_data</text>
<text text-anchor="start" x="584" y="-237.3" font-family="Arial, sans-serf" font-size="14.00">literature subjects</text>
</g>
<!-- &lt;InputOutputNode literature_subjects&gt;&#45;&gt;&lt;NotebookRule &#39;Omics terms&#39; with 2 inputs and 1 outputs&gt; -->
<g id="edge10" class="edge">
<title>&lt;InputOutputNode literature_subjects&gt;&#45;&gt;&lt;NotebookRule &#39;Omics terms&#39; with 2 inputs and 1 outputs&gt;</title>
<path fill="none" stroke="black" d="M656.46,-267.78C689.03,-301.79 756.32,-372.06 788.95,-406.13"/>
<polygon fill="black" stroke="black" points="786.65,-408.79 796.09,-413.59 791.71,-403.95 786.65,-408.79"/>
</g>
<!-- &lt;NotebookRule &#39;Article types&#39; with 3 inputs and 2 outputs&gt; -->
<g id="node10" class="node">
<title>&lt;NotebookRule &#39;Article types&#39; with 3 inputs and 2 outputs&gt;</title>
<g id="a_node10_6"><a xlink:href="https://github.com/krassowski/multi-omics-state-of-the-art/blob/master/Article_types.ipynb" xlink:title="Article_types.ipynb">
<polygon fill="none" stroke="black" points="768.5,-284.5 768.5,-305.5 848.5,-305.5 848.5,-284.5 768.5,-284.5"/>
<text text-anchor="start" x="771.5" y="-291.3" font-family="Arial, sans-serf" font-size="14.00">Article types</text>
</a>
</g>
<polygon fill="none" stroke="black" points="767.5,-284 767.5,-307 849.5,-307 849.5,-284 767.5,-284"/>
</g>
<!-- &lt;InputOutputNode literature_subjects&gt;&#45;&gt;&lt;NotebookRule &#39;Article types&#39; with 3 inputs and 2 outputs&gt; -->
<g id="edge11" class="edge">
<title>&lt;InputOutputNode literature_subjects&gt;&#45;&gt;&lt;NotebookRule &#39;Article types&#39; with 3 inputs and 2 outputs&gt;</title>
<path fill="none" stroke="black" d="M706.94,-267.62C723.78,-272.29 741.49,-277.2 757.27,-281.57"/>
<polygon fill="black" stroke="black" points="756.76,-285.06 767.33,-284.36 758.63,-278.32 756.76,-285.06"/>
</g>
<!-- &lt;InputOutputNode reliable_article_types&gt; -->
<g id="pubmed_derived_data_reliable_article_types" class="node">
<title>&lt;InputOutputNode reliable_article_types&gt;</title>
<polygon fill="none" stroke="black" points="1040,-272.5 1037,-276.5 1016,-276.5 1013,-272.5 888,-272.5 888,-234.5 1040,-234.5 1040,-272.5"/>
<text text-anchor="start" x="896" y="-257.3" font-family="Arial, sans-serf" font-size="14.00" fill="grey">pubmed_derived_data</text>
<text text-anchor="start" x="904" y="-242.3" font-family="Arial, sans-serf" font-size="14.00">reliable article types</text>
</g>
<!-- &lt;NotebookRule &#39;Article types&#39; with 3 inputs and 2 outputs&gt;&#45;&gt;&lt;InputOutputNode reliable_article_types&gt; -->
<g id="edge12" class="edge">
<title>&lt;NotebookRule &#39;Article types&#39; with 3 inputs and 2 outputs&gt;&#45;&gt;&lt;InputOutputNode reliable_article_types&gt;</title>
<path fill="none" stroke="black" d="M849.83,-284.46C860.31,-281.6 871.97,-278.41 883.7,-275.2"/>
<polygon fill="black" stroke="black" points="884.84,-278.52 893.56,-272.5 882.99,-271.76 884.84,-278.52"/>
</g>
<!-- &lt;InputOutputNode predicted_article_types&gt; -->
<g id="pubmed_derived_data_predicted_article_types" class="node">
<title>&lt;InputOutputNode predicted_article_types&gt;</title>
<polygon fill="none" stroke="black" points="1040,-328.5 1037,-332.5 1016,-332.5 1013,-328.5 888,-328.5 888,-290.5 1040,-290.5 1040,-328.5"/>
<text text-anchor="start" x="896" y="-313.3" font-family="Arial, sans-serf" font-size="14.00" fill="grey">pubmed_derived_data</text>
<text text-anchor="start" x="898" y="-298.3" font-family="Arial, sans-serf" font-size="14.00">predicted article types</text>
</g>
<!-- &lt;NotebookRule &#39;Article types&#39; with 3 inputs and 2 outputs&gt;&#45;&gt;&lt;InputOutputNode predicted_article_types&gt; -->
<g id="edge13" class="edge">
<title>&lt;NotebookRule &#39;Article types&#39; with 3 inputs and 2 outputs&gt;&#45;&gt;&lt;InputOutputNode predicted_article_types&gt;</title>
<path fill="none" stroke="black" d="M849.83,-299.18C858.53,-299.97 868.05,-300.84 877.75,-301.72"/>
<polygon fill="black" stroke="black" points="877.62,-305.23 887.89,-302.65 878.25,-298.26 877.62,-305.23"/>
</g>
<!-- &lt;InputOutputNode reliable_article_types&gt;&#45;&gt;&lt;NotebookRule &#39;Overview&#39; with 7 inputs&gt; -->
<g id="edge15" class="edge">
<title>&lt;InputOutputNode reliable_article_types&gt;&#45;&gt;&lt;NotebookRule &#39;Overview&#39; with 7 inputs&gt;</title>
<path fill="none" stroke="black" d="M1020.98,-272.61C1027.5,-275.36 1033.97,-278.34 1040,-281.5 1071.35,-297.95 1104.29,-322.1 1125.32,-338.52"/>
<polygon fill="black" stroke="black" points="1123.28,-341.37 1133.3,-344.83 1127.62,-335.88 1123.28,-341.37"/>
</g>
<!-- &lt;InputOutputNode reliable_article_types&gt;&#45;&gt;&lt;NotebookRule &#39;Flowchart&#39; with 5 inputs&gt; -->
<g id="edge16" class="edge">
<title>&lt;InputOutputNode reliable_article_types&gt;&#45;&gt;&lt;NotebookRule &#39;Flowchart&#39; with 5 inputs&gt;</title>
<path fill="none" stroke="black" d="M1028.83,-272.63C1032.87,-275.23 1036.65,-278.17 1040,-281.5 1072.01,-313.35 1056.44,-335.8 1076,-376.5 1093.73,-413.39 1118.92,-453.88 1134.18,-477.42"/>
<polygon fill="black" stroke="black" points="1131.29,-479.4 1139.7,-485.85 1137.15,-475.57 1131.29,-479.4"/>
</g>
<!-- &lt;NotebookRule &#39;Diseases and datasets&#39; with 5 inputs&gt; -->
<g id="node13" class="node">
<title>&lt;NotebookRule &#39;Diseases and datasets&#39; with 5 inputs&gt;</title>
<g id="a_node13_7"><a xlink:href="https://github.com/krassowski/multi-omics-state-of-the-art/blob/master/Diseases_and_datasets.ipynb" xlink:title="Diseases_and_datasets.ipynb">
<polygon fill="none" stroke="black" points="1077.5,-121.5 1077.5,-142.5 1220.5,-142.5 1220.5,-121.5 1077.5,-121.5"/>
<text text-anchor="start" x="1080.5" y="-128.3" font-family="Arial, sans-serf" font-size="14.00">Diseases and datasets</text>
</a>
</g>
<polygon fill="none" stroke="black" points="1076,-121 1076,-144 1221,-144 1221,-121 1076,-121"/>
</g>
<!-- &lt;InputOutputNode reliable_article_types&gt;&#45;&gt;&lt;NotebookRule &#39;Diseases and datasets&#39; with 5 inputs&gt; -->
<g id="edge14" class="edge">
<title>&lt;InputOutputNode reliable_article_types&gt;&#45;&gt;&lt;NotebookRule &#39;Diseases and datasets&#39; with 5 inputs&gt;</title>
<path fill="none" stroke="black" d="M1017.25,-234.33C1025.07,-230.77 1032.89,-226.81 1040,-222.5 1074,-201.91 1108.37,-170.96 1128.8,-151.25"/>
<polygon fill="black" stroke="black" points="1131.47,-153.54 1136.17,-144.05 1126.57,-148.54 1131.47,-153.54"/>
</g>
<!-- &lt;InputOutputNode predicted_article_types&gt;&#45;&gt;&lt;NotebookRule &#39;Overview&#39; with 7 inputs&gt; -->
<g id="edge17" class="edge">
<title>&lt;InputOutputNode predicted_article_types&gt;&#45;&gt;&lt;NotebookRule &#39;Overview&#39; with 7 inputs&gt;</title>
<path fill="none" stroke="black" d="M1038.97,-328.55C1061.52,-334.36 1085.53,-340.54 1105.22,-345.61"/>
<polygon fill="black" stroke="black" points="1104.53,-349.05 1115.09,-348.15 1106.28,-342.27 1104.53,-349.05"/>
</g>
<!-- &lt;InputOutputNode publication_types&gt; -->
<g id="pubmed_derived_data_publication_types" class="node">
<title>&lt;InputOutputNode publication_types&gt;</title>
<polygon fill="none" stroke="black" points="286.5,-291.5 283.5,-295.5 262.5,-295.5 259.5,-291.5 134.5,-291.5 134.5,-253.5 286.5,-253.5 286.5,-291.5"/>
<text text-anchor="start" x="142.5" y="-276.3" font-family="Arial, sans-serf" font-size="14.00" fill="grey">pubmed_derived_data</text>
<text text-anchor="start" x="160" y="-261.3" font-family="Arial, sans-serf" font-size="14.00">publication types</text>
</g>
<!-- &lt;InputOutputNode publication_types&gt;&#45;&gt;&lt;NotebookRule &#39;Exploration&#39; with 6 inputs&gt; -->
<g id="edge19" class="edge">
<title>&lt;InputOutputNode publication_types&gt;&#45;&gt;&lt;NotebookRule &#39;Exploration&#39; with 6 inputs&gt;</title>
<path fill="none" stroke="black" d="M269.28,-291.64C276.03,-294.39 282.74,-297.35 289,-300.5 327.46,-319.82 368.36,-348.54 393.05,-366.89"/>
<polygon fill="black" stroke="black" points="390.98,-369.71 401.08,-372.92 395.18,-364.11 390.98,-369.71"/>
</g>
<!-- &lt;InputOutputNode publication_types&gt;&#45;&gt;&lt;NotebookRule &#39;Article types&#39; with 3 inputs and 2 outputs&gt; -->
<g id="edge18" class="edge">
<title>&lt;InputOutputNode publication_types&gt;&#45;&gt;&lt;NotebookRule &#39;Article types&#39; with 3 inputs and 2 outputs&gt;</title>
<path fill="none" stroke="black" d="M286.68,-275.4C410.09,-280.16 652.38,-289.51 757.2,-293.56"/>
<polygon fill="black" stroke="black" points="757.08,-297.06 767.21,-293.95 757.35,-290.06 757.08,-297.06"/>
</g>
<!-- &lt;InputOutputNode code_repositories&gt;&#45;&gt;&lt;NotebookRule &#39;Overview&#39; with 7 inputs&gt; -->
<g id="edge21" class="edge">
<title>&lt;InputOutputNode code_repositories&gt;&#45;&gt;&lt;NotebookRule &#39;Overview&#39; with 7 inputs&gt;</title>
<path fill="none" stroke="black" d="M713.18,-383.78C821.73,-376.96 1018.78,-364.58 1105.09,-359.16"/>
<polygon fill="black" stroke="black" points="1105.53,-362.64 1115.29,-358.52 1105.09,-355.66 1105.53,-362.64"/>
</g>
<!-- &lt;InputOutputNode code_repositories&gt;&#45;&gt;&lt;NotebookRule &#39;Flowchart&#39; with 5 inputs&gt; -->
<g id="edge22" class="edge">
<title>&lt;InputOutputNode code_repositories&gt;&#45;&gt;&lt;NotebookRule &#39;Flowchart&#39; with 5 inputs&gt;</title>
<path fill="none" stroke="black" d="M662.81,-407.73C705.78,-439.69 798.1,-502.48 888,-525.5 962.69,-544.62 1052.74,-525.96 1104.73,-511.29"/>
<polygon fill="black" stroke="black" points="1105.98,-514.57 1114.6,-508.42 1104.02,-507.85 1105.98,-514.57"/>
</g>
<!-- &lt;InputOutputNode code_repositories&gt;&#45;&gt;&lt;NotebookRule &#39;Article types&#39; with 3 inputs and 2 outputs&gt; -->
<g id="edge20" class="edge">
<title>&lt;InputOutputNode code_repositories&gt;&#45;&gt;&lt;NotebookRule &#39;Article types&#39; with 3 inputs and 2 outputs&gt;</title>
<path fill="none" stroke="black" d="M672.71,-369.46C703.47,-352.58 747.94,-328.18 777.27,-312.09"/>
<polygon fill="black" stroke="black" points="779.14,-315.05 786.23,-307.17 775.78,-308.91 779.14,-315.05"/>
</g>
<!-- &lt;InputOutputNode affiliations&gt; -->
<g id="pubmed_derived_data_affiliations" class="node">
<title>&lt;InputOutputNode affiliations&gt;</title>
<polygon fill="none" stroke="black" points="286.5,-403.5 283.5,-407.5 262.5,-407.5 259.5,-403.5 134.5,-403.5 134.5,-365.5 286.5,-365.5 286.5,-403.5"/>
<text text-anchor="start" x="142.5" y="-388.3" font-family="Arial, sans-serf" font-size="14.00" fill="grey">pubmed_derived_data</text>
<text text-anchor="start" x="180" y="-373.3" font-family="Arial, sans-serf" font-size="14.00">affiliations</text>
</g>
<!-- &lt;InputOutputNode affiliations&gt;&#45;&gt;&lt;NotebookRule &#39;Exploration&#39; with 6 inputs&gt; -->
<g id="edge23" class="edge">
<title>&lt;InputOutputNode affiliations&gt;&#45;&gt;&lt;NotebookRule &#39;Exploration&#39; with 6 inputs&gt;</title>
<path fill="none" stroke="black" d="M286.78,-384.5C314.28,-384.5 344.59,-384.5 368.94,-384.5"/>
<polygon fill="black" stroke="black" points="368.98,-388 378.98,-384.5 368.98,-381 368.98,-388"/>
</g>
<!-- &lt;InputOutputNode authors&gt; -->
<g id="pubmed_derived_data_authors" class="node">
<title>&lt;InputOutputNode authors&gt;</title>
<polygon fill="none" stroke="black" points="286.5,-347.5 283.5,-351.5 262.5,-351.5 259.5,-347.5 134.5,-347.5 134.5,-309.5 286.5,-309.5 286.5,-347.5"/>
<text text-anchor="start" x="142.5" y="-332.3" font-family="Arial, sans-serf" font-size="14.00" fill="grey">pubmed_derived_data</text>
<text text-anchor="start" x="187.5" y="-317.3" font-family="Arial, sans-serf" font-size="14.00">authors</text>
</g>
<!-- &lt;InputOutputNode authors&gt;&#45;&gt;&lt;NotebookRule &#39;Exploration&#39; with 6 inputs&gt; -->
<g id="edge24" class="edge">
<title>&lt;InputOutputNode authors&gt;&#45;&gt;&lt;NotebookRule &#39;Exploration&#39; with 6 inputs&gt;</title>
<path fill="none" stroke="black" d="M281.02,-347.54C309.95,-355.46 342.78,-364.45 368.83,-371.58"/>
<polygon fill="black" stroke="black" points="368.24,-375.05 378.81,-374.32 370.09,-368.3 368.24,-375.05"/>
</g>
<!-- &lt;InputOutputNode web_of_science_journals&gt; -->
<g id="journals_data_web_of_science_journals" class="node">
<title>&lt;InputOutputNode web_of_science_journals&gt;</title>
<polygon fill="none" stroke="black" points="289,-515.5 286,-519.5 265,-519.5 262,-515.5 132,-515.5 132,-477.5 289,-477.5 289,-515.5"/>
<text text-anchor="start" x="169.5" y="-500.3" font-family="Arial, sans-serf" font-size="14.00" fill="grey">journals_data</text>
<text text-anchor="start" x="140" y="-485.3" font-family="Arial, sans-serf" font-size="14.00">web of science journals</text>
</g>
<!-- &lt;InputOutputNode web_of_science_journals&gt;&#45;&gt;&lt;NotebookRule &#39;Exploration&#39; with 6 inputs&gt; -->
<g id="edge25" class="edge">
<title>&lt;InputOutputNode web_of_science_journals&gt;&#45;&gt;&lt;NotebookRule &#39;Exploration&#39; with 6 inputs&gt;</title>
<path fill="none" stroke="black" d="M276.12,-477.38C280.71,-474.77 285.07,-471.83 289,-468.5 313.91,-447.41 298.77,-423.92 325,-404.5 337.46,-395.27 353.36,-390.15 368.36,-387.35"/>
<polygon fill="black" stroke="black" points="369.21,-390.76 378.55,-385.77 368.13,-383.85 369.21,-390.76"/>
</g>
<!-- &lt;InputOutputNode scimago_by_issn&gt; -->
<g id="journals_data_scimago_by_issn" class="node">
<title>&lt;InputOutputNode scimago_by_issn&gt;</title>
<polygon fill="none" stroke="black" points="267,-459.5 264,-463.5 243,-463.5 240,-459.5 154,-459.5 154,-421.5 267,-421.5 267,-459.5"/>
<text text-anchor="start" x="169.5" y="-444.3" font-family="Arial, sans-serf" font-size="14.00" fill="grey">journals_data</text>
<text text-anchor="start" x="162" y="-429.3" font-family="Arial, sans-serf" font-size="14.00">scimago by issn</text>
</g>
<!-- &lt;InputOutputNode scimago_by_issn&gt;&#45;&gt;&lt;NotebookRule &#39;Exploration&#39; with 6 inputs&gt; -->
<g id="edge26" class="edge">
<title>&lt;InputOutputNode scimago_by_issn&gt;&#45;&gt;&lt;NotebookRule &#39;Exploration&#39; with 6 inputs&gt;</title>
<path fill="none" stroke="black" d="M267.2,-421.72C285.51,-415.85 306.03,-409.58 325,-404.5 339.08,-400.73 354.53,-397.13 368.63,-394.06"/>
<polygon fill="black" stroke="black" points="369.58,-397.43 378.62,-391.92 368.11,-390.59 369.58,-397.43"/>
</g>
<!-- &lt;InputOutputNode popular_journals&gt; -->
<g id="pubmed_derived_data_popular_journals" class="node">
<title>&lt;InputOutputNode popular_journals&gt;</title>
<polygon fill="none" stroke="black" points="493,-87.5 490,-91.5 469,-91.5 466,-87.5 341,-87.5 341,-49.5 493,-49.5 493,-87.5"/>
<text text-anchor="start" x="349" y="-72.3" font-family="Arial, sans-serf" font-size="14.00" fill="grey">pubmed_derived_data</text>
<text text-anchor="start" x="368.5" y="-57.3" font-family="Arial, sans-serf" font-size="14.00">popular journals</text>
</g>
<!-- &lt;InputOutputNode popular_journals&gt;&#45;&gt;&lt;NotebookRule &#39;Diseases and datasets&#39; with 5 inputs&gt; -->
<g id="edge27" class="edge">
<title>&lt;InputOutputNode popular_journals&gt;&#45;&gt;&lt;NotebookRule &#39;Diseases and datasets&#39; with 5 inputs&gt;</title>
<path fill="none" stroke="black" d="M493.32,-75.11C631.26,-87.21 923.31,-112.83 1065.83,-125.33"/>
<polygon fill="black" stroke="black" points="1065.56,-128.82 1075.83,-126.21 1066.17,-121.85 1065.56,-128.82"/>
</g>
<!-- &lt;InputOutputNode cancer_articles_from_popular_journals_tiab_only&gt; -->
<g id="pubmed_derived_data_cancer_articles_from_popular_journals_tiab_only" class="node">
<title>&lt;InputOutputNode cancer_articles_from_popular_journals_tiab_only&gt;</title>
<polygon fill="none" stroke="black" points="729,-53 726,-57 705,-57 702,-53 545,-53 545,0 729,0 729,-53"/>
<text text-anchor="start" x="569" y="-37.8" font-family="Arial, sans-serf" font-size="14.00" fill="grey">pubmed_derived_data</text>
<text text-anchor="start" x="553" y="-22.8" font-family="Arial, sans-serf" font-size="14.00">cancer articles from popular</text>
<text text-anchor="start" x="586" y="-7.8" font-family="Arial, sans-serf" font-size="14.00">journals tiab only</text>
</g>
<!-- &lt;InputOutputNode cancer_articles_from_popular_journals_tiab_only&gt;&#45;&gt;&lt;NotebookRule &#39;Diseases and datasets&#39; with 5 inputs&gt; -->
<g id="edge28" class="edge">
<title>&lt;InputOutputNode cancer_articles_from_popular_journals_tiab_only&gt;&#45;&gt;&lt;NotebookRule &#39;Diseases and datasets&#39; with 5 inputs&gt;</title>
<path fill="none" stroke="black" d="M729.35,-28.65C812.12,-32.74 936.59,-44.29 1040,-76.5 1069.4,-85.66 1100.32,-102.65 1121.41,-115.52"/>
<polygon fill="black" stroke="black" points="1119.75,-118.61 1130.09,-120.93 1123.45,-112.67 1119.75,-118.61"/>
</g>
<!-- &lt;InputOutputNode all_articles_by_journal_and_year&gt; -->
<g id="pubmed_derived_data_all_articles_by_journal_and_year" class="node">
<title>&lt;InputOutputNode all_articles_by_journal_and_year&gt;</title>
<polygon fill="none" stroke="black" points="1040,-214 1037,-218 1016,-218 1013,-214 888,-214 888,-161 1040,-161 1040,-214"/>
<text text-anchor="start" x="896" y="-198.8" font-family="Arial, sans-serf" font-size="14.00" fill="grey">pubmed_derived_data</text>
<text text-anchor="start" x="902.5" y="-183.8" font-family="Arial, sans-serf" font-size="14.00">all articles by journal</text>
<text text-anchor="start" x="937.5" y="-168.8" font-family="Arial, sans-serf" font-size="14.00">and year</text>
</g>
<!-- &lt;InputOutputNode all_articles_by_journal_and_year&gt;&#45;&gt;&lt;NotebookRule &#39;Overview&#39; with 7 inputs&gt; -->
<g id="edge30" class="edge">
<title>&lt;InputOutputNode all_articles_by_journal_and_year&gt;&#45;&gt;&lt;NotebookRule &#39;Overview&#39; with 7 inputs&gt;</title>
<path fill="none" stroke="black" d="M1023.42,-214.01C1029.24,-217.55 1034.88,-221.39 1040,-225.5 1080.82,-258.26 1116.82,-308.74 1134.98,-336.5"/>
<polygon fill="black" stroke="black" points="1132.09,-338.47 1140.44,-344.99 1137.97,-334.69 1132.09,-338.47"/>
</g>
<!-- &lt;InputOutputNode all_articles_by_journal_and_year&gt;&#45;&gt;&lt;NotebookRule &#39;Diseases and datasets&#39; with 5 inputs&gt; -->
<g id="edge29" class="edge">
<title>&lt;InputOutputNode all_articles_by_journal_and_year&gt;&#45;&gt;&lt;NotebookRule &#39;Diseases and datasets&#39; with 5 inputs&gt;</title>
<path fill="none" stroke="black" d="M1040.02,-164.89C1060.09,-158.84 1081.25,-152.47 1099.43,-146.99"/>
<polygon fill="black" stroke="black" points="1100.64,-150.28 1109.2,-144.04 1098.62,-143.58 1100.64,-150.28"/>
</g>
<!-- &lt;InputOutputNode cancer_articles_from_popular_journals_any_field&gt; -->
<g id="pubmed_derived_data_cancer_articles_from_popular_journals_any_field" class="node">
<title>&lt;InputOutputNode cancer_articles_from_popular_journals_any_field&gt;</title>
<polygon fill="none" stroke="black" points="509,-159 506,-163 485,-163 482,-159 325,-159 325,-106 509,-106 509,-159"/>
<text text-anchor="start" x="349" y="-143.8" font-family="Arial, sans-serf" font-size="14.00" fill="grey">pubmed_derived_data</text>
<text text-anchor="start" x="333" y="-128.8" font-family="Arial, sans-serf" font-size="14.00">cancer articles from popular</text>
<text text-anchor="start" x="366" y="-113.8" font-family="Arial, sans-serf" font-size="14.00">journals any field</text>
</g>
<!-- &lt;InputOutputNode cancer_articles_from_popular_journals_any_field&gt;&#45;&gt;&lt;NotebookRule &#39;Diseases and datasets&#39; with 5 inputs&gt; -->
<g id="edge31" class="edge">
<title>&lt;InputOutputNode cancer_articles_from_popular_journals_any_field&gt;&#45;&gt;&lt;NotebookRule &#39;Diseases and datasets&#39; with 5 inputs&gt;</title>
<path fill="none" stroke="black" d="M509.28,-132.5C652.69,-132.5 928.54,-132.5 1065.79,-132.5"/>
<polygon fill="black" stroke="black" points="1065.83,-136 1075.83,-132.5 1065.83,-129 1065.83,-136"/>
</g>
<!-- &lt;InputOutputNode domain_features&gt;&#45;&gt;&lt;NotebookRule &#39;Overview&#39; with 7 inputs&gt; -->
<g id="edge33" class="edge">
<title>&lt;InputOutputNode domain_features&gt;&#45;&gt;&lt;NotebookRule &#39;Overview&#39; with 7 inputs&gt;</title>
<path fill="none" stroke="black" d="M1024.01,-478.45C1029.59,-475.77 1035.01,-472.79 1040,-469.5 1079.04,-443.71 1114.35,-401.26 1133.18,-376.38"/>
<polygon fill="black" stroke="black" points="1136.2,-378.19 1139.35,-368.08 1130.58,-374.02 1136.2,-378.19"/>
</g>
<!-- &lt;InputOutputNode domain_features&gt;&#45;&gt;&lt;NotebookRule &#39;Flowchart&#39; with 5 inputs&gt; -->
<g id="edge34" class="edge">
<title>&lt;InputOutputNode domain_features&gt;&#45;&gt;&lt;NotebookRule &#39;Flowchart&#39; with 5 inputs&gt;</title>
<path fill="none" stroke="black" d="M1040.02,-497.5C1061.92,-497.5 1085.11,-497.5 1104.32,-497.5"/>
<polygon fill="black" stroke="black" points="1104.55,-501 1114.55,-497.5 1104.55,-494 1104.55,-501"/>
</g>
<!-- &lt;NotebookRule &#39;Journals&#39; with 2 outputs&gt; -->
<g id="node25" class="node">
<title>&lt;NotebookRule &#39;Journals&#39; with 2 outputs&gt;</title>
<g id="a_node25_8"><a xlink:href="https://github.com/krassowski/multi-omics-state-of-the-art/blob/master/Journals.ipynb" xlink:title="Journals.ipynb">
<polygon fill="none" stroke="black" points="19,-457.5 19,-478.5 77,-478.5 77,-457.5 19,-457.5"/>
<text text-anchor="start" x="22" y="-464.3" font-family="Arial, sans-serf" font-size="14.00">Journals</text>
</a>
</g>
<polygon fill="none" stroke="black" points="18,-457 18,-480 78,-480 78,-457 18,-457"/>
</g>
<!-- &lt;NotebookRule &#39;Journals&#39; with 2 outputs&gt;&#45;&gt;&lt;InputOutputNode web_of_science_journals&gt; -->
<g id="edge35" class="edge">
<title>&lt;NotebookRule &#39;Journals&#39; with 2 outputs&gt;&#45;&gt;&lt;InputOutputNode web_of_science_journals&gt;</title>
<path fill="none" stroke="black" d="M78.07,-473.57C90.63,-475.76 106.08,-478.46 121.9,-481.22"/>
<polygon fill="black" stroke="black" points="121.33,-484.67 131.78,-482.94 122.53,-477.78 121.33,-484.67"/>
</g>
<!-- &lt;NotebookRule &#39;Journals&#39; with 2 outputs&gt;&#45;&gt;&lt;InputOutputNode scimago_by_issn&gt; -->
<g id="edge36" class="edge">
<title>&lt;NotebookRule &#39;Journals&#39; with 2 outputs&gt;&#45;&gt;&lt;InputOutputNode scimago_by_issn&gt;</title>
<path fill="none" stroke="black" d="M78.07,-463.43C96.4,-460.23 120.85,-455.96 143.69,-451.98"/>
<polygon fill="black" stroke="black" points="144.45,-455.4 153.7,-450.23 143.25,-448.51 144.45,-455.4"/>
</g>
<!-- &lt;NotebookRule &#39;Literature data&#39; with 9 outputs&gt; -->
<g id="node26" class="node">
<title>&lt;NotebookRule &#39;Literature data&#39; with 9 outputs&gt;</title>
<g id="a_node26_9"><a xlink:href="https://github.com/krassowski/multi-omics-state-of-the-art/blob/master/Literature_data.ipynb" xlink:title="Literature_data.ipynb">
<polygon fill="none" stroke="black" points="1,-214.5 1,-235.5 95,-235.5 95,-214.5 1,-214.5"/>
<text text-anchor="start" x="4" y="-221.3" font-family="Arial, sans-serf" font-size="14.00">Literature data</text>
</a>
</g>
<polygon fill="none" stroke="black" points="0,-214 0,-237 96,-237 96,-214 0,-214"/>
</g>
<!-- &lt;NotebookRule &#39;Literature data&#39; with 9 outputs&gt;&#45;&gt;&lt;InputOutputNode literature&gt; -->
<g id="edge37" class="edge">
<title>&lt;NotebookRule &#39;Literature data&#39; with 9 outputs&gt;&#45;&gt;&lt;InputOutputNode literature&gt;</title>
<path fill="none" stroke="black" d="M50.8,-237.26C58.64,-287.13 91.26,-480.54 132,-524.5 132.78,-525.34 133.58,-526.15 134.41,-526.94"/>
<polygon fill="black" stroke="black" points="132.49,-529.89 142.48,-533.42 136.87,-524.43 132.49,-529.89"/>
</g>
<!-- &lt;NotebookRule &#39;Literature data&#39; with 9 outputs&gt;&#45;&gt;&lt;InputOutputNode literature_subjects&gt; -->
<g id="edge38" class="edge">
<title>&lt;NotebookRule &#39;Literature data&#39; with 9 outputs&gt;&#45;&gt;&lt;InputOutputNode literature_subjects&gt;</title>
<path fill="none" stroke="black" d="M96.04,-227.34C194.75,-231.21 424.68,-240.22 550.31,-245.14"/>
<polygon fill="black" stroke="black" points="550.53,-248.65 560.66,-245.55 550.8,-241.66 550.53,-248.65"/>
</g>
<!-- &lt;NotebookRule &#39;Literature data&#39; with 9 outputs&gt;&#45;&gt;&lt;InputOutputNode publication_types&gt; -->
<g id="edge39" class="edge">
<title>&lt;NotebookRule &#39;Literature data&#39; with 9 outputs&gt;&#45;&gt;&lt;InputOutputNode publication_types&gt;</title>
<path fill="none" stroke="black" d="M88.67,-237.12C102.59,-241.19 118.71,-245.91 134.56,-250.55"/>
<polygon fill="black" stroke="black" points="133.78,-253.97 144.36,-253.43 135.75,-247.26 133.78,-253.97"/>
</g>
<!-- &lt;NotebookRule &#39;Literature data&#39; with 9 outputs&gt;&#45;&gt;&lt;InputOutputNode affiliations&gt; -->
<g id="edge40" class="edge">
<title>&lt;NotebookRule &#39;Literature data&#39; with 9 outputs&gt;&#45;&gt;&lt;InputOutputNode affiliations&gt;</title>
<path fill="none" stroke="black" d="M53.3,-237.1C63.24,-262.41 90.22,-322.96 132,-356.5 133.55,-357.74 135.16,-358.93 136.81,-360.07"/>
<polygon fill="black" stroke="black" points="135.1,-363.12 145.45,-365.36 138.75,-357.15 135.1,-363.12"/>
</g>
<!-- &lt;NotebookRule &#39;Literature data&#39; with 9 outputs&gt;&#45;&gt;&lt;InputOutputNode authors&gt; -->
<g id="edge41" class="edge">
<title>&lt;NotebookRule &#39;Literature data&#39; with 9 outputs&gt;&#45;&gt;&lt;InputOutputNode authors&gt;</title>
<path fill="none" stroke="black" d="M59.17,-237.19C73.81,-253.4 102.36,-282.7 132,-300.5 134.61,-302.07 137.33,-303.57 140.11,-305.01"/>
<polygon fill="black" stroke="black" points="138.65,-308.19 149.18,-309.36 141.68,-301.88 138.65,-308.19"/>
</g>
<!-- &lt;NotebookRule &#39;Literature data&#39; with 9 outputs&gt;&#45;&gt;&lt;InputOutputNode popular_journals&gt; -->
<g id="edge42" class="edge">
<title>&lt;NotebookRule &#39;Literature data&#39; with 9 outputs&gt;&#45;&gt;&lt;InputOutputNode popular_journals&gt;</title>
<path fill="none" stroke="black" d="M56.4,-213.92C69.31,-194.71 97.86,-156.39 132,-136.5 192.97,-100.97 271.61,-83.97 330.66,-75.86"/>
<polygon fill="black" stroke="black" points="331.25,-79.31 340.71,-74.54 330.34,-72.37 331.25,-79.31"/>
</g>
<!-- &lt;NotebookRule &#39;Literature data&#39; with 9 outputs&gt;&#45;&gt;&lt;InputOutputNode cancer_articles_from_popular_journals_tiab_only&gt; -->
<g id="edge43" class="edge">
<title>&lt;NotebookRule &#39;Literature data&#39; with 9 outputs&gt;&#45;&gt;&lt;InputOutputNode cancer_articles_from_popular_journals_tiab_only&gt;</title>
<path fill="none" stroke="black" d="M52.03,-213.78C59.96,-185.68 84.06,-114.21 132,-79.5 249.49,5.56 424.66,3.04 534.51,-9.53"/>
<polygon fill="black" stroke="black" points="534.25,-13.02 544.6,-10.73 535.08,-6.07 534.25,-13.02"/>
</g>
<!-- &lt;NotebookRule &#39;Literature data&#39; with 9 outputs&gt;&#45;&gt;&lt;InputOutputNode all_articles_by_journal_and_year&gt; -->
<g id="edge44" class="edge">
<title>&lt;NotebookRule &#39;Literature data&#39; with 9 outputs&gt;&#45;&gt;&lt;InputOutputNode all_articles_by_journal_and_year&gt;</title>
<path fill="none" stroke="black" d="M96.06,-217.49C165.73,-206.34 300.54,-187.5 416,-187.5 416,-187.5 416,-187.5 638,-187.5 719.27,-187.5 811.98,-187.5 877.53,-187.5"/>
<polygon fill="black" stroke="black" points="877.81,-191 887.81,-187.5 877.81,-184 877.81,-191"/>
</g>
<!-- &lt;NotebookRule &#39;Literature data&#39; with 9 outputs&gt;&#45;&gt;&lt;InputOutputNode cancer_articles_from_popular_journals_any_field&gt; -->
<g id="edge45" class="edge">
<title>&lt;NotebookRule &#39;Literature data&#39; with 9 outputs&gt;&#45;&gt;&lt;InputOutputNode cancer_articles_from_popular_journals_any_field&gt;</title>
<path fill="none" stroke="black" d="M63.31,-213.9C79.12,-201.74 105.82,-183.1 132,-173.5 190.34,-152.1 259.25,-141.82 314.58,-136.91"/>
<polygon fill="black" stroke="black" points="315.08,-140.38 324.75,-136.05 314.49,-133.4 315.08,-140.38"/>
</g>
</g>
</svg>
